<svg width="184" height="33" viewBox="0 0 184 33" fill="none" xmlns="http://www.w3.org/2000/svg">
<path d="M5.92885 0.143555H8.70633L14.5782 14.2612H11.4077L10.1394 11.1211H4.34357L3.07535 14.2612H0L5.92885 0.143555ZM9.0994 8.39617L7.27958 3.85464L5.45326 8.39617H9.0994Z" fill="black"/>
<path d="M16.6958 0.240723H19.7078V11.4583H26.5436V14.2741H16.6958V0.240723Z" fill="black"/>
<path d="M30.0695 3.08243H25.897V0.240723H37.254V3.08243H33.0815V14.2741H30.0695V3.08243Z" fill="black"/>
<path d="M53.9438 0.240638H60.2089C60.9337 0.193724 61.6603 0.295221 62.3463 0.539195C63.0322 0.783169 63.6638 1.16472 64.2039 1.66149C64.5979 2.08905 64.9045 2.59274 65.106 3.14307C65.3074 3.6934 65.3995 4.27932 65.3769 4.86652V4.90544C65.4222 5.85936 65.1592 6.80199 64.6285 7.58768C64.0979 8.37337 63.3292 8.95841 62.441 9.25234L65.7892 14.261H62.2635L59.3274 9.77786H56.9559V14.274H53.9438V0.240638ZM60.0123 7.05294C61.4771 7.05294 62.3206 6.24844 62.3206 5.06764V5.02871C62.3206 3.73113 61.42 3.02395 59.9552 3.02395H56.9559V7.05294H60.0123Z" fill="black"/>
<path d="M67.4819 12.2176L68.4458 11.0563C69.0589 11.6927 69.7908 12.1964 70.598 12.5374C71.4052 12.8785 72.2712 13.0499 73.1445 13.0416C74.9834 13.0416 76.1946 12.0424 76.1946 10.6605V10.6151C76.1946 9.31752 75.5099 8.57143 72.631 7.95508C69.4604 7.25439 68.0337 6.20982 68.0337 3.90661V3.89364C68.0337 1.68776 69.9359 0.0657858 72.5358 0.0657858C74.2948 0.0160733 76.0103 0.630367 77.3551 1.79157L76.4545 3.0113C75.359 2.03063 73.9534 1.48902 72.4977 1.48664C70.7158 1.48664 69.5809 2.49226 69.5809 3.75091V3.78984C69.5809 5.08742 70.2847 5.853 73.2967 6.51476C76.3087 7.17653 77.7355 8.33786 77.7355 10.4854V10.5243C77.7355 12.9248 75.7825 14.4884 73.0558 14.4884C70.9807 14.4976 68.9829 13.6837 67.4819 12.2176V12.2176Z" fill="black"/>
<path d="M80.3166 7.2931V7.25418C80.3014 6.30445 80.4717 5.36118 80.8174 4.47965C81.1631 3.59812 81.6773 2.79608 82.3299 2.12052C82.9825 1.44496 83.7604 0.909471 84.6179 0.545467C85.4754 0.181463 86.3952 -0.00374131 87.3236 0.000703539C88.2496 -0.0126928 89.1688 0.165348 90.026 0.524163C90.8832 0.882978 91.6607 1.41518 92.3121 2.08886C92.9634 2.76254 93.4752 3.56384 93.8165 4.44472C94.1579 5.32561 94.3219 6.26794 94.2988 7.21525V7.25418C94.3184 8.20479 94.151 9.14973 93.8068 10.0329C93.4626 10.9161 92.9485 11.7195 92.2949 12.3955C91.6413 13.0714 90.8617 13.6061 90.0023 13.9679C89.1428 14.3296 88.2211 14.5109 87.2918 14.5012C86.3661 14.5155 85.4471 14.3382 84.5899 13.9801C83.7327 13.622 82.955 13.0904 82.3036 12.4173C81.6522 11.7441 81.1404 10.9432 80.799 10.0627C80.4576 9.18216 80.2934 8.24011 80.3166 7.2931V7.2931ZM92.6881 7.2931V7.25418C92.6881 4.06862 90.418 1.46048 87.2855 1.46048C84.153 1.46048 81.9209 4.05564 81.9209 7.21525V7.25418C81.8929 8.00006 82.0115 8.74411 82.2699 9.44216C82.5282 10.1402 82.921 10.7781 83.4249 11.3178C83.9288 11.8576 84.5336 12.2883 85.2033 12.5844C85.873 12.8804 86.594 13.0359 87.3236 13.0414C90.4561 13.0414 92.6881 10.4787 92.6881 7.2931Z" fill="black"/>
<path d="M97.5645 0.240723H99.1116V12.8013H106.829V14.2741H97.5645V0.240723Z" fill="black"/>
<path d="M109.08 8.39602V0.240723H110.627V8.29221C110.627 11.3156 112.193 13.0219 114.812 13.0219C117.431 13.0219 118.946 11.4583 118.946 8.39602V0.240723H120.494V8.27275C120.494 12.3601 118.204 14.4817 114.787 14.4817C111.369 14.4817 109.08 12.3601 109.08 8.39602Z" fill="black"/>
<path d="M127.774 1.7005H123.176V0.240723H133.956V1.7005H129.353V14.2741H127.786L127.774 1.7005Z" fill="black"/>
<path d="M136.98 0.240723H138.528V14.2741H136.98V0.240723Z" fill="black"/>
<path d="M141.933 7.2931V7.25418C141.918 6.30445 142.088 5.36118 142.434 4.47965C142.779 3.59812 143.294 2.79608 143.946 2.12052C144.599 1.44496 145.377 0.909471 146.234 0.545467C147.092 0.181463 148.011 -0.00374131 148.94 0.000703539C149.866 -0.0126928 150.785 0.165348 151.642 0.524163C152.499 0.882978 153.277 1.41518 153.928 2.08886C154.58 2.76254 155.091 3.56384 155.433 4.44472C155.774 5.32561 155.938 6.26794 155.915 7.21525V7.25418C155.935 8.20203 155.768 9.1443 155.426 10.0253C155.084 10.9063 154.572 11.7083 153.922 12.3838C153.272 13.0593 152.496 13.5947 151.64 13.9583C150.785 14.322 149.866 14.5066 148.94 14.5012C148.011 14.5199 147.089 14.3459 146.228 13.9898C145.367 13.6337 144.586 13.1028 143.931 12.4292C143.276 11.7555 142.761 10.9531 142.418 10.0704C142.075 9.18766 141.91 8.24289 141.933 7.2931V7.2931ZM154.304 7.2931V7.25418C154.304 4.06861 152.034 1.46048 148.902 1.46048C145.769 1.46048 143.537 4.05564 143.537 7.21525V7.25418C143.509 8.00006 143.628 8.74411 143.886 9.44216C144.145 10.1402 144.537 10.7781 145.041 11.3178C145.545 11.8576 146.15 12.2883 146.82 12.5844C147.489 12.8804 148.21 13.0359 148.94 13.0414C152.072 13.0414 154.304 10.4787 154.304 7.2931Z" fill="black"/>
<path d="M159.181 0.240723H160.633L169.263 11.4778V0.240723H170.773V14.2741H169.536L160.659 2.7775V14.2741H159.149L159.181 0.240723Z" fill="black"/>
<path d="M173.747 12.2177L174.71 11.0564C175.324 11.6928 176.055 12.1964 176.863 12.5375C177.67 12.8786 178.536 13.05 179.409 13.0417C181.248 13.0417 182.459 12.0425 182.459 10.6606V10.6152C182.459 9.31762 181.774 8.57152 178.895 7.95517C175.725 7.25448 174.298 6.20991 174.298 3.90671V3.89374C174.298 1.68785 176.201 0.0658769 178.8 0.0658769C180.558 0.0153235 182.271 0.629816 183.613 1.79166L182.713 3.01139C181.62 2.02962 180.216 1.48774 178.762 1.48673C176.98 1.48673 175.845 2.49235 175.845 3.751V3.78993C175.845 5.08751 176.549 5.85309 179.561 6.51486C182.573 7.17662 184 8.33795 184 10.4855V10.5244C184 12.9249 182.047 14.4885 179.32 14.4885C177.245 14.4977 175.248 13.6838 173.747 12.2177V12.2177Z" fill="black"/>
<path d="M51.5088 0.117676H39.6636V2.97235H51.5088V0.117676Z" fill="#F7981D"/>
<path d="M51.5088 11.4326H39.6636V14.2873H51.5088V11.4326Z" fill="#F7981D"/>
<path d="M51.5088 5.7749H39.6636V8.62958H51.5088V5.7749Z" fill="#F7981D"/>
<path d="M79.5396 30.8842C80.4734 30.8842 81.1169 30.5435 81.5838 30.0261V30.758H83.4388V26.8336C83.4388 25.9251 83.2116 25.1806 82.7069 24.6758C82.2274 24.1963 81.4703 23.9187 80.4229 23.9187C79.2746 23.9187 78.5427 24.1332 77.7982 24.4613L78.2777 25.9251C78.8961 25.6979 79.4134 25.5591 80.1453 25.5591C81.1043 25.5591 81.5965 26.0008 81.5965 26.7958V26.9093C81.1169 26.7453 80.6248 26.6317 79.9434 26.6317C78.3408 26.6317 77.2178 27.3131 77.2178 28.7895V28.8147C77.2178 30.1523 78.2651 30.8842 79.5396 30.8842ZM80.1201 29.5592C79.5018 29.5592 79.0727 29.2564 79.0727 28.739V28.7138C79.0727 28.1081 79.5775 27.78 80.3977 27.78C80.8646 27.78 81.2936 27.881 81.6217 28.0324V28.3731C81.6217 29.0671 81.016 29.5592 80.1201 29.5592Z" fill="black" fill-opacity="0.6"/>
<path d="M88.2818 30.9094C89.632 30.9094 90.3891 30.3921 91.0453 29.6728L89.9222 28.5371C89.4553 28.9788 89.0137 29.2564 88.3701 29.2564C87.3228 29.2564 86.654 28.4236 86.654 27.3888V27.3636C86.654 26.3667 87.3354 25.5213 88.2944 25.5213C88.9758 25.5213 89.4048 25.8115 89.8339 26.2658L91.0074 25.0039C90.3765 24.2973 89.5815 23.8682 88.307 23.8682C86.2376 23.8682 84.7612 25.4582 84.7612 27.3888V27.4141C84.7612 29.3447 86.2502 30.9094 88.2818 30.9094Z" fill="black" fill-opacity="0.6"/>
<path d="M94.5821 30.8716C95.2257 30.8716 95.6926 30.7202 96.0964 30.4804V28.9409C95.8188 29.0924 95.5033 29.1807 95.15 29.1807C94.721 29.1807 94.5317 28.9662 94.5317 28.5245V25.6348H96.1216V23.9944H94.5317V22.2657H92.6136V23.9944H91.806V25.6348H92.6136V28.84C92.6136 30.4047 93.4086 30.8716 94.5821 30.8716Z" fill="black" fill-opacity="0.6"/>
<path d="M104.095 30.8842C105.092 30.8842 105.735 30.4173 106.202 29.7864V30.758H108.12V21.5464H106.202V24.8777C105.748 24.3351 105.117 23.8682 104.095 23.8682C102.492 23.8682 101.016 25.1049 101.016 27.3636V27.3888C101.016 29.6476 102.517 30.8842 104.095 30.8842ZM104.587 29.2564C103.691 29.2564 102.934 28.5119 102.934 27.3888V27.3636C102.934 26.2279 103.691 25.496 104.587 25.496C105.483 25.496 106.227 26.2405 106.227 27.3636V27.3888C106.227 28.5119 105.483 29.2564 104.587 29.2564Z" fill="black" fill-opacity="0.6"/>
<path d="M109.872 23.2499H111.891V21.5464H109.872V23.2499ZM109.922 30.758H111.84V23.9944H109.922V30.758Z" fill="black" fill-opacity="0.6"/>
<path d="M116.67 32.8022C117.982 32.8022 118.954 32.5246 119.585 31.8937C120.153 31.3259 120.443 30.4425 120.443 29.2312V23.9944H118.525V24.8777C118.008 24.3099 117.389 23.8682 116.342 23.8682C114.79 23.8682 113.339 25.0039 113.339 27.0229V27.0481C113.339 29.0545 114.765 30.2028 116.342 30.2028C117.364 30.2028 117.982 29.7864 118.55 29.105V29.4331C118.55 30.6444 117.932 31.2754 116.619 31.2754C115.724 31.2754 115.03 31.0482 114.335 30.6571L113.679 32.0956C114.537 32.5499 115.572 32.8022 116.67 32.8022ZM116.897 28.6128C115.963 28.6128 115.257 27.9819 115.257 27.0481V27.0229C115.257 26.1017 115.963 25.4582 116.897 25.4582C117.831 25.4582 118.55 26.1017 118.55 27.0229V27.0481C118.55 27.9693 117.831 28.6128 116.897 28.6128Z" fill="black" fill-opacity="0.6"/>
<path d="M122.194 23.2499H124.213V21.5464H122.194V23.2499ZM122.245 30.758H124.163V23.9944H122.245V30.758Z" fill="black" fill-opacity="0.6"/>
<path d="M128.248 30.8716C128.892 30.8716 129.359 30.7202 129.763 30.4804V28.9409C129.485 29.0924 129.17 29.1807 128.816 29.1807C128.387 29.1807 128.198 28.9662 128.198 28.5245V25.6348H129.788V23.9944H128.198V22.2657H126.28V23.9944H125.472V25.6348H126.28V28.84C126.28 30.4047 127.075 30.8716 128.248 30.8716Z" fill="black" fill-opacity="0.6"/>
<path d="M133.12 30.8842C134.053 30.8842 134.697 30.5435 135.164 30.0261V30.758H137.019V26.8336C137.019 25.9251 136.792 25.1806 136.287 24.6758C135.807 24.1963 135.05 23.9187 134.003 23.9187C132.855 23.9187 132.123 24.1332 131.378 24.4613L131.858 25.9251C132.476 25.6979 132.993 25.5591 133.725 25.5591C134.684 25.5591 135.177 26.0008 135.177 26.7958V26.9093C134.697 26.7453 134.205 26.6317 133.523 26.6317C131.921 26.6317 130.798 27.3131 130.798 28.7895V28.8147C130.798 30.1523 131.845 30.8842 133.12 30.8842ZM133.7 29.5592C133.082 29.5592 132.653 29.2564 132.653 28.739V28.7138C132.653 28.1081 133.158 27.78 133.978 27.78C134.445 27.78 134.874 27.881 135.202 28.0324V28.3731C135.202 29.0671 134.596 29.5592 133.7 29.5592Z" fill="black" fill-opacity="0.6"/>
<path d="M138.758 30.758H140.676V21.5464H138.758V30.758Z" fill="black" fill-opacity="0.6"/>
<path d="M149.289 32.8022C150.601 32.8022 151.573 32.5246 152.204 31.8937C152.771 31.3259 153.062 30.4425 153.062 29.2312V23.9944H151.144V24.8777C150.626 24.3099 150.008 23.8682 148.961 23.8682C147.409 23.8682 145.957 25.0039 145.957 27.0229V27.0481C145.957 29.0545 147.383 30.2028 148.961 30.2028C149.983 30.2028 150.601 29.7864 151.169 29.105V29.4331C151.169 30.6444 150.551 31.2754 149.238 31.2754C148.342 31.2754 147.648 31.0482 146.954 30.6571L146.298 32.0956C147.156 32.5499 148.191 32.8022 149.289 32.8022ZM149.516 28.6128C148.582 28.6128 147.875 27.9819 147.875 27.0481V27.0229C147.875 26.1017 148.582 25.4582 149.516 25.4582C150.45 25.4582 151.169 26.1017 151.169 27.0229V27.0481C151.169 27.9693 150.45 28.6128 149.516 28.6128Z" fill="black" fill-opacity="0.6"/>
<path d="M154.775 30.758H156.693V28.2595C156.693 26.6443 157.476 25.8746 158.75 25.8746H158.851V23.8682C157.716 23.8177 157.085 24.4234 156.693 25.3572V23.9944H154.775V30.758Z" fill="black" fill-opacity="0.6"/>
<path d="M163.183 30.9094C165.291 30.9094 166.855 29.3321 166.855 27.3888V27.3636C166.855 25.4203 165.303 23.8682 163.209 23.8682C161.101 23.8682 159.537 25.4456 159.537 27.3888V27.4141C159.537 29.3573 161.089 30.9094 163.183 30.9094ZM163.209 29.2564C162.149 29.2564 161.429 28.3857 161.429 27.3888V27.3636C161.429 26.3667 162.086 25.5213 163.183 25.5213C164.243 25.5213 164.963 26.392 164.963 27.3888V27.4141C164.963 28.4109 164.307 29.2564 163.209 29.2564Z" fill="black" fill-opacity="0.6"/>
<path d="M170.49 30.8842C171.462 30.8842 172.03 30.3668 172.472 29.799V30.758H174.39V23.9944H172.472V27.7674C172.472 28.6759 172.005 29.1428 171.273 29.1428C170.541 29.1428 170.112 28.6759 170.112 27.7674V23.9944H168.194V28.3731C168.194 29.9252 169.039 30.8842 170.49 30.8842Z" fill="black" fill-opacity="0.6"/>
<path d="M176.106 32.777H178.024V29.8747C178.479 30.4173 179.11 30.8842 180.132 30.8842C181.734 30.8842 183.211 29.6476 183.211 27.3888V27.3636C183.211 25.1049 181.709 23.8682 180.132 23.8682C179.135 23.8682 178.491 24.3351 178.024 24.966V23.9944H176.106V32.777ZM179.64 29.2564C178.744 29.2564 177.999 28.5119 177.999 27.3888V27.3636C177.999 26.2405 178.744 25.496 179.64 25.496C180.535 25.496 181.293 26.2405 181.293 27.3636V27.3888C181.293 28.5245 180.535 29.2564 179.64 29.2564Z" fill="black" fill-opacity="0.6"/>
</svg>
