<?xml version="1.0" encoding="UTF-8"?>
<svg version="1.1" xmlns="http://www.w3.org/2000/svg" width="1677" height="589">
<path d="M0 0 C13.86 0 27.72 0 42 0 C42.33 60.39 42.66 120.78 43 183 C46.3 180.03 49.6 177.06 53 174 C86.67913335 147.83204027 127.85510625 138.26797514 169.859375 143.25390625 C207.73625256 148.37259725 243.22037588 168.92163152 266.51953125 199.23828125 C291.88656877 233.16316668 303.27681437 275.12113731 297.75390625 317.22265625 C292.71159829 351.27064571 277.8090179 380.37467291 254 405 C253.07960938 405.99773437 253.07960938 405.99773437 252.140625 407.015625 C228.83358775 431.70723872 191.7933968 446.60030015 158.27148438 448.12402344 C117.50556199 449.22986393 79.97587327 438.38301993 49.5 410.4375 C35.02434855 396.71446104 24.13503616 380.13390615 16 362 C15.69465332 361.32163086 15.38930664 360.64326172 15.07470703 359.94433594 C1.42581847 328.94467126 -0.16776326 296.15668797 -0.11606562 262.82609165 C-0.11170218 259.29053503 -0.11321168 255.75497995 -0.1139679 252.21942139 C-0.11448943 246.11041891 -0.11138155 240.00142721 -0.10573006 233.89242744 C-0.09756456 225.06009984 -0.09499469 216.22777738 -0.09374207 207.39544641 C-0.09155944 193.0617237 -0.08492086 178.72800672 -0.07543945 164.39428711 C-0.06624485 150.47957386 -0.05917406 136.56486217 -0.05493164 122.65014648 C-0.05466892 121.79084561 -0.05440619 120.93154475 -0.05413551 120.04620446 C-0.05283037 115.73486739 -0.05156668 111.42353031 -0.05032361 107.11219323 C-0.0399756 71.40812457 -0.02210151 35.7040632 0 0 Z M70.2109375 219.44921875 C49.3270423 243.54318264 38.09955064 273.83363866 40.26171875 305.87890625 C42.15704299 322.2760692 46.94079075 336.60257923 55 351 C55.55558594 351.99773437 56.11117187 352.99546875 56.68359375 354.0234375 C61.19239483 361.57054339 66.93821589 367.70227819 73 374 C73.57234375 374.64710938 74.1446875 375.29421875 74.734375 375.9609375 C87.77123021 390.27459812 107.64073661 398.46754222 126 403 C127.47146484 403.37125 127.47146484 403.37125 128.97265625 403.75 C155.47227023 409.2405675 184.11545352 402.9195587 206.63671875 388.31640625 C211.71949438 384.87835507 216.4436557 381.10909578 221 377 C221.84046875 376.24203125 222.6809375 375.4840625 223.546875 374.703125 C244.42496014 354.86246024 256.56179598 326.37861625 257.4050293 297.6965332 C257.76671462 264.87563001 245.25400442 236.80757046 222.5703125 213.50390625 C202.45669458 194.47840209 174.12007584 184.18041152 146.55859375 184.75390625 C117.1031886 186.79088817 90.73652579 197.96983919 70.2109375 219.44921875 Z " fill="#000" transform="translate(702,0)"/>
<path d="M0 0 C13.2 0 26.4 0 40 0 C40.01458252 5.08059814 40.02916504 10.16119629 40.04418945 15.39575195 C40.09465388 32.2313827 40.16112237 49.06692266 40.23571491 65.90246296 C40.28052837 76.10415419 40.31997568 86.30581164 40.34643555 96.50756836 C40.36953337 105.40767142 40.40306097 114.30766625 40.44870156 123.20768327 C40.47247615 127.91268008 40.49130749 132.61757077 40.49761391 137.32262611 C40.50373705 141.76731051 40.52399126 146.21172391 40.55427551 150.65630722 C40.56294165 152.27215238 40.56680263 153.88803313 40.56500816 155.50390053 C40.54420898 182.91890237 45.93696419 212.15464783 65 233 C65.55171875 233.63164062 66.1034375 234.26328125 66.671875 234.9140625 C79.14671441 248.39876986 98.03533428 254.99722854 116.00561523 256.12597656 C138.01215555 256.97393007 158.86310451 250.65551015 175.3125 235.5625 C177.23784818 233.73497267 179.11966642 231.87486749 181 230 C181.680625 229.34257812 182.36125 228.68515625 183.0625 228.0078125 C195.87043467 214.68527332 199.55351682 194.90675435 200.54966736 177.14125061 C200.59167705 176.40366015 200.63368675 175.66606968 200.67696947 174.90612799 C201.10486299 166.85173796 201.17483102 158.80397576 201.20532227 150.73999023 C201.21493516 149.09218113 201.22494703 147.44437431 201.23532104 145.79656982 C201.26200752 141.38244292 201.2832098 136.96830571 201.30332303 132.55414462 C201.32541035 127.91905842 201.35268616 123.2840026 201.37937927 118.64894104 C201.42900235 109.89823841 201.47405198 101.14751864 201.51740164 92.39678293 C201.56703621 82.42316053 201.62185584 72.44956864 201.67708123 62.47597587 C201.79043392 41.98401116 201.89668783 21.49201796 202 1 C215.86 1 229.72 1 244 1 C244.06802425 35.84558722 244.12163902 70.69115091 244.15319599 105.5367903 C244.15694746 109.66417542 244.16083049 113.7915604 244.16479492 117.91894531 C244.16558185 118.74052553 244.16636878 119.56210575 244.16717956 120.40858234 C244.18018203 133.65711768 244.20380695 146.90561338 244.23145839 160.15412532 C244.25965705 173.77993792 244.27620657 187.40572998 244.28226548 201.03157055 C244.28635219 209.41829891 244.29918973 217.80491519 244.3237494 226.19160898 C244.33978584 231.96708348 244.34436061 237.74250128 244.34050413 243.51799636 C244.3386099 246.834673 244.34292552 250.15100197 244.35761642 253.46766853 C244.55529111 300.4553182 236.87890989 352.2404043 205 389 C204.31421875 389.81855469 203.6284375 390.63710938 202.921875 391.48046875 C179.49074557 418.66226459 144.07910579 431.9468317 109 435 C105.67156011 435.15004522 102.34716263 435.18688786 99.015625 435.203125 C98.07934265 435.20882507 97.1430603 435.21452515 96.17840576 435.22039795 C94.2017935 435.22979456 92.22516595 435.23636053 90.24853516 435.24023438 C87.29950637 435.24983877 84.35120657 435.28087151 81.40234375 435.3125 C64.80950378 435.40598177 48.1931775 434.16691247 32.25 429.25 C31.39132324 428.99323486 30.53264648 428.73646973 29.64794922 428.47192383 C4.87498141 420.85493493 -15.33474754 407.9235868 -34 390 C-34.48919922 389.53271484 -34.97839844 389.06542969 -35.48242188 388.58398438 C-47.98198771 376.58240921 -47.98198771 376.58240921 -52 370 C-52 369.01 -52 368.02 -52 367 C-49.7890625 365.01171875 -49.7890625 365.01171875 -46.625 362.6875 C-45.44036148 361.81000245 -44.25683276 360.93100535 -43.07421875 360.05078125 C-42.42630371 359.5707666 -41.77838867 359.09075195 -41.11083984 358.59619141 C-38.79736014 356.8467662 -36.53211053 355.04520295 -34.26953125 353.23046875 C-33.4688623 352.59214111 -32.66819336 351.95381348 -31.84326172 351.29614258 C-30.25498516 350.0278101 -28.67184517 348.75301513 -27.09423828 347.47143555 C-26.36060059 346.89047119 -25.62696289 346.30950684 -24.87109375 345.7109375 C-23.89547485 344.92662354 -23.89547485 344.92662354 -22.90014648 344.12646484 C-21 343 -21 343 -17 343 C-15.2029277 344.83362293 -13.68602147 346.6054806 -12.125 348.625 C-2.19169246 360.85073952 8.60386589 371.61587416 22 380 C22.5779834 380.36319336 23.1559668 380.72638672 23.75146484 381.10058594 C52.85957868 398.94494976 90.05561226 399.6660129 122.51953125 391.96875 C147.50201108 385.51178304 169.17720295 370.44209677 182.3515625 348.0859375 C196.97627769 322.24954851 201.3830649 292.37185611 201 263 C199.99582031 263.7734375 198.99164062 264.546875 197.95703125 265.34375 C171.81260834 285.32764998 143.28091408 300.49997337 109.3515625 296.5 C80.68839683 292.62810778 54.99906547 281.09237007 34 261 C33.32582031 260.38898438 32.65164063 259.77796875 31.95703125 259.1484375 C10.69163129 239.19886069 1.16015305 209.40519422 -0.09251738 180.89429569 C-0.48423947 168.54160929 -0.35836262 156.17315884 -0.30418181 143.81630945 C-0.28520598 138.74619432 -0.28364834 133.67607169 -0.28010559 128.60592651 C-0.2708457 119.04075612 -0.2463155 109.47569073 -0.21605712 99.91056621 C-0.18232255 89.00580438 -0.16597958 78.10103707 -0.15097082 67.1962359 C-0.11975927 44.79741929 -0.06482465 22.39874629 0 0 Z " fill="#000" transform="translate(1433,154)"/>
<path d="M0 0 C0.51127441 0.44037598 1.02254883 0.88075195 1.54931641 1.33447266 C42.22639727 36.44303089 55.93541378 94.91247046 73.3092804 143.65228271 C77.2995407 154.84593226 81.30983255 166.03235377 85.32275391 177.21789551 C86.49306898 180.48067665 87.66268169 183.74370865 88.83203125 187.00683594 C92.56729503 197.43002564 96.30523817 207.85224191 100.05014038 218.27197266 C101.8336584 223.23445325 103.61579067 228.19743143 105.39794922 233.16040039 C106.25398188 235.54325692 107.11058505 237.92590858 107.96777344 240.30834961 C109.15049934 243.59568654 110.33132042 246.88370173 111.51171875 250.171875 C111.86695114 251.15762512 112.22218353 252.14337524 112.58818054 253.15899658 C112.90801407 254.05108826 113.2278476 254.94317993 113.55737305 255.86230469 C113.83759811 256.64176453 114.11782318 257.42122437 114.40653992 258.2243042 C115 260 115 260 115 261 C100.15 261 85.3 261 70 261 C62.46197572 241.47292759 54.93716856 221.94230723 47.56546021 202.35180664 C46.89672209 200.57534193 46.22686065 198.79929968 45.55587769 197.02368164 C44.61852133 194.54177759 43.68554158 192.05827501 42.75390625 189.57421875 C42.47338409 188.8333049 42.19286194 188.09239105 41.90383911 187.32902527 C40 182.22922021 40 182.22922021 40 180 C39.34 180 38.68 180 38 180 C37.73316406 180.86496094 37.46632813 181.72992188 37.19140625 182.62109375 C25.55217187 215.63072569 -4.23239622 242.01904546 -34.94140625 256.94140625 C-44.62898247 261.48275883 -54.58036769 264.62022123 -65 267 C-65.71397949 267.16516113 -66.42795898 267.33032227 -67.16357422 267.50048828 C-104.55789978 275.73183652 -145.82374583 268.88801031 -178.09838867 248.26196289 C-212.57328987 225.38344649 -237.07511995 191.92116319 -245.57397461 151.19335938 C-245.71456299 150.46955078 -245.85515137 149.74574219 -246 149 C-246.17732666 148.10603516 -246.35465332 147.21207031 -246.53735352 146.29101562 C-248.11031039 137.4146947 -248.33973229 128.70316375 -248.31567383 119.71777344 C-248.31252202 117.26712127 -248.33603736 114.81769092 -248.36132812 112.3671875 C-248.4878143 81.1713108 -238.18948601 49.72353254 -219 25 C-218.41476563 24.195625 -217.82953125 23.39125 -217.2265625 22.5625 C-193.35421368 -9.12830367 -158.20121616 -28.15891908 -119.4453125 -34.58984375 C-76.23143152 -39.73435339 -32.99207513 -29.18346617 0 0 Z M-180.36230469 45.14355469 C-199.698661 67.06270397 -208.51745574 96.72385004 -207.1640625 125.58496094 C-205.10542823 155.8885476 -190.6382841 183.04866094 -168 203 C-148.47620692 218.50790291 -124.80231715 227.44831422 -99.8125 227.3125 C-98.16894531 227.30404053 -98.16894531 227.30404053 -96.4921875 227.29541016 C-69.0553207 226.88741199 -45.01175188 216.45276271 -25 198 C-24.33742187 197.41863281 -23.67484375 196.83726562 -22.9921875 196.23828125 C-10.26417525 184.48706994 -2.13836894 167.9065681 3.375 151.75 C3.61379883 151.05422852 3.85259766 150.35845703 4.09863281 149.64160156 C7.64183003 138.64282004 8.36278517 127.68458368 8.3125 116.1875 C8.31067719 115.52669434 8.30885437 114.86588867 8.30697632 114.18505859 C8.26167447 104.43173244 7.88524271 95.37414197 5 86 C4.64808594 84.84371094 4.29617187 83.68742187 3.93359375 82.49609375 C-0.57660439 68.93572905 -6.90058004 57.01824327 -16 46 C-17.15822266 44.59427734 -17.15822266 44.59427734 -18.33984375 43.16015625 C-36.8173313 21.80772737 -63.3489648 9.30639894 -91.3671875 7.16015625 C-126.1579272 5.04380562 -157.14402798 19.88298866 -180.36230469 45.14355469 Z " fill="#000" transform="translate(248,175)"/>
<path d="M0 0 C5.57380576 5.22407347 10.51450181 10.78867212 15.0625 16.9375 C15.83851563 17.97519531 16.61453125 19.01289063 17.4140625 20.08203125 C30.98168079 38.93605194 39.15014268 61.28278082 47.0625 82.9375 C47.53105571 84.20992971 47.99997722 85.48222478 48.46923828 86.75439453 C56.30566504 108.02333522 63.7264934 129.43428512 71.11376953 150.86254883 C76.31304643 165.93556796 81.59586969 180.97688258 86.9375 196 C92.06047171 210.41689487 97.14762837 224.8446167 102.125 239.3125 C102.51277618 240.43484543 102.51277618 240.43484543 102.90838623 241.5798645 C103.62064693 243.64326198 104.32870084 245.7080464 105.03515625 247.7734375 C105.42968994 248.92376465 105.82422363 250.0740918 106.23071289 251.25927734 C107.0625 253.9375 107.0625 253.9375 107.0625 255.9375 C92.2125 255.9375 77.3625 255.9375 62.0625 255.9375 C52.0625 229.27083333 42.0625 202.60416667 32.0625 175.9375 C30.17909505 178.41197512 28.53113664 180.76575704 27.15234375 183.5546875 C19.61438424 198.47731001 10.6567874 210.92494827 -0.9375 222.9375 C-1.73800781 223.80117188 -2.53851562 224.66484375 -3.36328125 225.5546875 C-27.50147516 250.91756883 -63.50009238 264.10158219 -98.0234375 265.16015625 C-140.9532973 265.98229876 -177.53143655 252.19997499 -208.9375 222.9375 C-209.66710938 222.27363281 -210.39671875 221.60976563 -211.1484375 220.92578125 C-235.33214733 198.00800569 -249.80424563 164.66710729 -253.9375 131.9375 C-254.04835938 131.11121094 -254.15921875 130.28492188 -254.2734375 129.43359375 C-258.77602519 89.57960811 -247.94259784 48.4557654 -222.9375 16.9375 C-222.33881104 16.17856445 -222.33881104 16.17856445 -221.72802734 15.40429688 C-197.38076947 -15.19943467 -161.90538476 -35.35388059 -122.9375 -40.0625 C-77.06569181 -45.27520548 -34.02530901 -31.00945223 0 0 Z M-172.9375 26.9375 C-173.78699219 27.62328125 -174.63648438 28.3090625 -175.51171875 29.015625 C-194.67506372 45.2608468 -206.45503295 68.45118747 -210.9375 92.9375 C-211.13472656 94.01257813 -211.13472656 94.01257813 -211.3359375 95.109375 C-215.38667791 123.35507839 -208.14463948 153.49772653 -191.8984375 176.87109375 C-189.98926367 179.30890336 -187.99878104 181.62758195 -185.9375 183.9375 C-185.27492188 184.741875 -184.61234375 185.54625 -183.9296875 186.375 C-167.22346951 206.10189947 -141.79782888 219.7265998 -115.9375 221.9375 C-86.14311837 223.72746193 -57.5847309 217.09277019 -34.51953125 197.26953125 C-33.66746094 196.49996094 -32.81539062 195.73039063 -31.9375 194.9375 C-31.09574219 194.17824219 -30.25398438 193.41898438 -29.38671875 192.63671875 C-8.42502869 172.71822322 2.90388139 144.62740184 4.0625 115.9375 C4.8451379 84.70817002 -7.87101831 56.04065137 -29.01220703 33.47753906 C-48.7510178 13.04557018 -76.04738705 2.4777307 -104.1875 1.625 C-129.45423661 2.12164347 -153.49937104 10.80858041 -172.9375 26.9375 Z " fill="#000" transform="translate(1288.9375,183.0625)"/>
<path d="M0 0 C13.86 0 27.72 0 42 0 C42.0093457 5.50993652 42.01869141 11.01987305 42.02832031 16.69677734 C42.06215103 34.94138414 42.11753511 53.18587907 42.18390274 71.43039513 C42.22360251 82.48745318 42.25604086 93.544441 42.27099609 104.6015625 C42.28405977 114.24622598 42.3111439 123.89073432 42.35461307 133.53531039 C42.37712233 138.63545685 42.39291705 143.73541272 42.39188385 148.83561325 C42.39113096 153.65051652 42.40933075 158.46500018 42.44116783 163.27979469 C42.44958445 165.03312702 42.45147389 166.78650688 42.44580269 168.53985023 C42.40425334 183.37897029 43.88748871 198.57130124 50.75 212 C51.09361572 212.69802734 51.43723145 213.39605469 51.79125977 214.11523438 C54.81463329 220.047684 58.45485953 225.1252501 63 230 C63.67546875 230.76570312 64.3509375 231.53140625 65.046875 232.3203125 C74.41313951 242.4044294 85.93810773 248.11758437 99 252 C99.79277344 252.24621094 100.58554687 252.49242187 101.40234375 252.74609375 C121.18175327 257.78654082 142.71216796 253.04132767 160.125 243.25 C178.6372754 231.62049366 189.95499772 212.94327096 195 192 C197.04317146 181.33069973 197.30553241 170.89030036 197.31884766 160.07080078 C197.32816811 158.31505889 197.33833985 156.55932135 197.34928894 154.80358887 C197.37636459 150.08143717 197.39167104 145.35931491 197.40471697 140.63710642 C197.42044673 135.68567979 197.44720506 130.73431244 197.4727478 125.78292847 C197.5193625 116.42651863 197.55618988 107.07009742 197.58942068 97.71363151 C197.62776505 87.05325517 197.67714258 76.39293862 197.72740483 65.73261285 C197.83046698 43.82178074 197.91835428 21.9109231 198 0 C212.19 0 226.38 0 241 0 C241.04526594 23.02782989 241.08205825 46.05562337 241.10362434 69.08348656 C241.11390704 79.77735367 241.12790942 90.47119105 241.15087891 101.16503906 C241.17090533 110.49319563 241.18373825 119.82133064 241.18817699 129.14950812 C241.1907688 134.08196219 241.19679693 139.01435461 241.21146011 143.94678879 C241.22519077 148.60394958 241.22919189 153.26102424 241.22621536 157.91820335 C241.22675869 159.61350793 241.23064282 161.30881585 241.23841095 163.00410271 C241.30249056 177.73014317 240.62742944 192.62355506 236.875 206.9375 C236.66254639 207.75831055 236.45009277 208.57912109 236.23120117 209.42480469 C230.37153987 230.93968876 219.87358695 249.39142353 204 265 C203.16597656 265.83273437 202.33195313 266.66546875 201.47265625 267.5234375 C179.70758201 288.19496668 149.77978784 296.48844444 120.4375 297.25 C93.17275331 296.53582328 65.97628384 289.09844002 45 271 C44.13375 270.27039063 43.2675 269.54078125 42.375 268.7890625 C16.02550199 245.89391941 2.50414568 214.47620802 0 180 C-0.57044835 167.15719583 -0.3615009 154.27348828 -0.30418181 141.42209673 C-0.28520098 136.43606348 -0.28364796 131.45002255 -0.28010559 126.46395874 C-0.27084713 117.05815933 -0.24631894 107.65246674 -0.21605712 98.246714 C-0.18231799 87.52332745 -0.16597846 76.79993532 -0.15097082 66.07650876 C-0.11976252 44.0509333 -0.06482979 22.02550394 0 0 Z " fill="#000" transform="translate(389,150)"/>
<path d="M0 0 C14.87502734 10.40631259 24.62988371 25.12676255 28 43 C30.89479173 64.65112826 25.33888081 81.74911023 12.6875 99.1875 C-0.22400358 112.69953863 -16.72944477 120.05901522 -35.33203125 120.9921875 C-55.00005991 121.03407893 -70.38984758 114.11150889 -84.6875 100.8125 C-98.85521488 86.03542104 -102.44698941 69.13610383 -102.2109375 49.47265625 C-101.80532941 34.71302862 -95.66891173 22.01181613 -86 11 C-85.41734375 10.32324219 -84.8346875 9.64648438 -84.234375 8.94921875 C-63.09898775 -13.91784939 -25.54276278 -16.81533868 0 0 Z " fill="#000" transform="translate(187,238)"/>
</svg>
