<svg version="1.1" id="layer" xmlns="http://www.w3.org/2000/svg" xmlns:xlink="http://www.w3.org/1999/xlink" x="0px" y="0px"
	 viewBox="0 0 652 652" style="enable-background:new 0 0 652 652;" xml:space="preserve">
<style type="text/css">
	.st0{fill:#000000;}
</style>
<g id="g10" transform="matrix(1.25,0,0,-1.25,0,122.125)">
	<g id="g12" transform="scale(0.1,0.1)">
		<path id="path14" class="st0" d="M1465.6-1642.8c0,135.2,86.5,137.7,203.3,137.7h13.3c113.8,0,176.2-19.1,176.2-150v-91.1
			c0-109.6-28.3-156.3-180.2-156.3h-29c-144.1,0-183.5,39.6-183.5,148.8C1465.6-1753.8,1465.6-1642.8,1465.6-1642.8z M1465.6-1933.5
			h2.4c35.8-47.2,101.7-71.6,182.6-71.6h41.9c169.4,0,293.3,43.1,293.2,238.3v119.2c0,180.7-79.8,244.9-287.9,244.9h-64.7
			c-90.9,0-141.6-30.8-165.3-64.2h-2.2v288.9h-127.3v-808.7h127.4L1465.6-1933.5"/>
		<path id="path16" class="st0" d="M3529.9-1416.9h-171v52.2c0,49.8,32.6,89.8,102.2,89.8l127-0.2v97.2l-168.9-0.1
			c-102.1,0-187.8-53.2-187.8-187.4v-51.6h-68.6v-102.2h68.6v-485.6h127.5v485.6h171V-1416.9"/>
		<path id="path18" class="st0" d="M2793.7-1817.3c0-134.3,85.8-187.5,187.9-187.5h158.2v102.4h-127.1c-69.5,0-91.5,34.8-91.5,84.6
			v298.7h171.2v102.4h-171.2v238.9h-127.3v-239h-68.6v-102.3h68.6L2793.7-1817.3"/>
		<path id="path20" class="st0" d="M4261-1307.3h127.3v129.4l-127.4-0.1L4261-1307.3"/>
		<path id="path22" class="st0" d="M4260.9-2005h127.4v602.5h-127.4V-2005"/>
		<path id="path24" class="st0" d="M2176.8-1632.3c0,115.7,53.9,127.3,185.3,127.3h25.7c147.9,0,167-37.3,167-113.3l0.1-32.3
			l-378.2-0.2L2176.8-1632.3L2176.8-1632.3z M2315.7-2005h114.6c154.3,0,224.8,49,242.8,134.6l-113.4,34.3
			c-18.8-52.7-64.2-66.5-164.1-66.5h-29.4c-163.1,0-189.6,20.7-189.7,149.3l0.3,0.1h505.5v111.4c0,201.7-104.7,239.2-272.1,239.2
			h-62.3c-132.5,0-293.1-23.2-293.1-228.4v-142.2C2054.9-1972.5,2194.1-2005.1,2315.7-2005"/>
		<path id="path26" class="st0" d="M4020.5-1825c0-56.6-38.8-77.6-189.6-77.6h-34c-128.2,0-144.4,24.7-144.4,73.6v31.7
			c0,56.6,31.9,78,138.1,78h56.7c96.7,0,173.3-19,173.3-82.4V-1825L4020.5-1825z M3862.1-1402.5h-47.6
			c-172.8,0-247.7-53.2-252.6-132.8l121.4-40.3c5.6,54.4,68.1,70.5,162.7,70.5c140.8,0,174.1-8.1,174.1-109.9v-55.3h-2.5
			c-31.8,42.4-75.3,53.4-185.6,53.4h-49.8c-162.6,0-257.4-40.5-257.4-169.2v-36.8c0.2-106.3,40.6-182.1,210.5-182.1H3859
			c122.9,0,135.2,20.2,159.5,55.4h1.9v-55.1h127.3v387.3C4147.8-1448.9,4035.8-1402.5,3862.1-1402.5"/>
		<path id="path28" class="st0" d="M4776.9-1402.5c-56.6,0-114.3-21.4-150.1-80h-4.6v80l-120.6-0.1V-2005H4629v362.5
			c0,73.2,42,137.5,141,137.5c70.7,0,104.8-19.2,112.4-39.4l80.3,54.1C4942.8-1435.5,4889.6-1402.5,4776.9-1402.5"/>
		<path id="path30" class="st0" d="M1103.6-1179.9H773.8v-165.5H597.5l341.2-398.6l341.3,398.6h-176.4L1103.6-1179.9"/>
		<path id="path32" class="st0" d="M162.7-1835.7h176.4v-165.6h329.8v165.7h176.4l-341.1,398.3L162.7-1835.7"/>
	</g>
</g>
</svg>
