<svg viewBox="0 0 641 174" fill="none" xmlns="http://www.w3.org/2000/svg"><path d="M43.9515 172.685C30.1042 171.147 14.1201 165.767 4.80311 159.618L0.0164185 156.458L4.63216 147.747C7.19646 142.965 9.67529 138.951 10.1027 138.78C10.5301 138.609 12.4105 139.463 14.291 140.744C19.1632 143.904 30.1042 148.345 38.9083 150.651C44.9772 152.274 48.7381 152.701 57.6277 152.701C70.6202 152.701 75.4069 151.42 81.1338 146.552C85.4077 142.879 87.1172 139.293 87.1172 133.912C87.1172 124.091 81.5612 120.162 55.5763 111.537C29.6768 102.997 21.7275 98.9828 14.2056 90.8696C7.88028 84.1228 6.3417 80.1089 6.3417 69.8607C6.3417 61.9183 6.51265 60.8935 9.07695 55.684C13.6072 46.5459 21.9839 39.7992 34.0362 35.6145C53.012 29.0385 86.6898 33.1378 104.042 44.0693L107.632 46.3751L103.871 53.8905C97.9727 65.5906 98.4856 65.1636 92.5877 62.0037C74.7231 52.6095 52.1572 49.6204 40.6179 55.2569C34.2071 58.4168 31.5573 62.2599 31.5573 68.3235C31.5573 77.2053 37.1988 80.7921 65.2352 90.0156C87.2881 97.2747 95.6649 101.289 102.161 107.608C120.368 125.543 114.128 154.238 89.5105 166.28C76.689 172.514 61.8161 174.649 43.9515 172.685Z" fill="currentColor"></path><path d="M189.257 173.109C167.461 170.205 154.298 164.142 141.99 151.502C128.656 137.752 123.442 123.319 124.04 101.456C124.382 90.7812 124.638 88.6462 127.031 82.0702C130.45 72.249 135.579 63.7942 142.503 56.4496C159.256 38.7714 181.479 30.6583 207.207 32.7933C226.696 34.4159 240.799 40.8211 253.791 54.0584C266.698 67.1249 272.596 81.9848 272.596 101.456C272.596 121.868 266.698 135.959 252.082 150.563C237.209 165.252 221.054 172.255 199.6 173.194C195.326 173.365 190.711 173.365 189.257 173.109ZM209.772 150.99C219.174 149.025 225.926 145.182 233.277 137.838C243.62 127.419 247.21 118.537 247.21 103.592C247.21 88.7316 242.936 78.2272 232.85 68.1497C223.704 58.9263 214.045 54.6562 199.771 53.546C178.146 51.8379 157.033 66.3563 150.965 87.109C144.297 109.74 153.7 134.422 173.445 145.695C183.616 151.502 197.634 153.552 209.772 150.99Z" fill="currentColor"></path><path d="M553.39 172.681C528.687 169.351 508.429 155.601 498.685 135.702C492.958 124.173 491.847 119.049 491.847 104.445C491.847 94.0262 492.189 90.9518 493.813 85.2298C502.104 56.5348 528.345 35.4405 559.031 32.793C585.443 30.5726 606.812 38.1733 623.052 55.5099C633.138 66.2706 638.352 77.8853 640.232 93.8554C641.429 104.018 640.232 114.608 636.813 124.771C633.48 134.421 629.804 140.143 621.513 148.94C606.897 164.397 589.375 172.169 567.151 173.194C562.877 173.365 556.723 173.194 553.39 172.681ZM577.494 150.904C593.819 147.573 607.324 135.702 612.88 119.818C615.701 111.875 615.786 96.3321 613.051 87.7919C604.076 59.2676 570.057 45.0909 542.705 58.499C531.679 63.8793 521.593 76.4334 518.345 88.8167C516.721 95.0511 516.721 109.399 518.345 115.548C525.183 141.254 550.654 156.455 577.494 150.904Z" fill="currentColor"></path><path d="M446.562 169.869C434.765 166.965 426.816 159.535 422.114 147.152C418.439 137.331 417.755 129.644 417.156 91.6404L416.644 55.3446L411.258 55.0884L405.873 54.8322L406.129 46.6336L406.386 38.3496L421.259 26.1371C434.68 15.1202 436.39 13.9246 439.381 13.9246H442.715V24.5999V35.2751H462.376H482.036V45.0963V54.9176H462.376H442.715V85.9185C442.715 129.559 443.912 137.587 451.178 144.59C454.084 147.493 456.649 149.031 460.923 150.397C464.085 151.422 467.676 152.276 468.787 152.276C471.351 152.276 471.351 152.617 469.556 161.328C467.505 171.491 467.932 171.064 458.7 170.979C454.341 170.979 448.955 170.466 446.562 169.869Z" fill="currentColor"></path><path d="M310.039 133.312L309.783 96.3334L297.217 96.0772L284.566 95.821V86.0852V76.3494L297.217 76.0932L309.783 75.837L310.381 64.3077C310.979 51.7536 312.433 43.8966 315.595 35.0148C321.408 18.9592 333.29 7.68618 349.959 2.22045C355.771 0.341608 358.336 0 367.055 0C372.696 0 379.193 0.512412 381.586 1.02482C384.835 1.79344 396.118 5.89274 397.144 6.57595C397.486 6.83216 392.015 24.5958 391.331 25.3644C390.904 25.7914 388.596 25.1936 385.689 23.9126C368.337 16.141 347.822 21.5213 341.069 35.6126C337.735 42.4448 336.538 49.0207 336.111 62.8559L335.598 76.264H349.018H362.439L362.182 85.9144L361.926 95.4794L348.933 95.7356L335.854 95.9918L335.683 132.885L335.427 169.779L322.861 170.035L310.21 170.292L310.039 133.312Z" fill="currentColor"></path><path class="logo-dot" d="M373.034 170.383C365.599 165.686 362.864 156.378 366.539 148.351C369.445 142.031 375.342 139.042 383.718 139.64C392.864 140.323 398.932 147.667 397.992 157.061C397.394 162.697 395.599 166.113 391.667 169.102C389.017 171.152 387.65 171.493 382.094 171.749C376.881 171.92 375.086 171.664 373.034 170.383Z" fill="currentColor"></path></svg>